<svg xmlns="http://www.w3.org/2000/svg" viewBox="0 0 106 106"><defs><style>.cls-1{fill:#ffc868;}.cls-2{fill:#fff;}.cls-3{opacity:0.1;}.cls-4{opacity:0.25;}.cls-5{fill:#171c1f;}</style></defs><title>clipboard</title><g id="Clipboard"><g id="Fill"><rect class="cls-1" x="13" y="12" width="80" height="92" rx="6" ry="6"/></g><g id="White"><rect class="cls-2" x="21" y="18" width="64" height="76"/></g><g id="Shadows" class="cls-3"><path d="M37,27H69a4,4,0,0,0,4-4V19a4,4,0,0,1-4,4H37a4,4,0,0,1-4-4v4A4,4,0,0,0,37,27ZM85,92H21v2H85Zm2,8H19a4,4,0,0,1-4-4v2a4,4,0,0,0,4,4H87a4,4,0,0,0,4-4V96A4,4,0,0,1,87,100ZM21,98H85a2,2,0,0,0,2-2V94a2,2,0,0,1-2,2H21a2,2,0,0,1-2-2v2A2,2,0,0,0,21,98Z"/></g><g id="Inner_Lines_1" data-name="Inner Lines 1"><path d="M85,16H21a2,2,0,0,0-2,2V94a2,2,0,0,0,2,2H85a2,2,0,0,0,2-2V18A2,2,0,0,0,85,16Zm0,78H21V18H85Z"/></g><g id="Inner_Lines_2" data-name="Inner Lines 2" class="cls-4"><path d="M63,33H33v2H63ZM33,39v2H73V39Zm36,6H33v2H69ZM33,59H73V57H33Zm33,4H33v2H66Zm5,6H33v2H71ZM33,77H73V75H33Zm0,6H57V81H33Z"/></g><g id="Outline"><path class="cls-5" d="M87,10H73a4,4,0,0,0-4-4H60.74A8,8,0,0,0,45.26,6H37a4,4,0,0,0-4,4H19a8,8,0,0,0-8,8V98a8,8,0,0,0,8,8H87a8,8,0,0,0,8-8V18A8,8,0,0,0,87,10ZM53,4a4,4,0,1,1-4,4A4,4,0,0,1,53,4ZM91,98a4,4,0,0,1-4,4H19a4,4,0,0,1-4-4V18a4,4,0,0,1,4-4H33v5a4,4,0,0,0,4,4H69a4,4,0,0,0,4-4V14H87a4,4,0,0,1,4,4Z"/></g></g></svg>